<mxfile host="app.diagrams.net" modified="2024-02-13T12:53:07.994Z" agent="Mozilla/5.0 (Macintosh; Intel Mac OS X 10_15_7) AppleWebKit/537.36 (KHTML, like Gecko) Chrome/118.0.0.0 YaBrowser/23.11.0.0 Safari/537.36" etag="opOi6MHKXyU7qtLT3y1G" version="23.1.2" type="device">
  <diagram name="Страница — 1" id="mk-lOvDsLlkD-NigfdxK">
    <mxGraphModel dx="896" dy="1673" grid="1" gridSize="10" guides="1" tooltips="1" connect="1" arrows="1" fold="1" page="1" pageScale="1" pageWidth="827" pageHeight="1169" math="0" shadow="0">
      <root>
        <mxCell id="0" />
        <mxCell id="1" parent="0" />
        <mxCell id="0T9Ke-bslYzrOg6vUABU-2" value="Клиент" style="swimlane;horizontal=0;whiteSpace=wrap;html=1;" vertex="1" parent="1">
          <mxGeometry x="120" y="120" width="800" height="200" as="geometry" />
        </mxCell>
        <mxCell id="0T9Ke-bslYzrOg6vUABU-5" value="" style="ellipse;whiteSpace=wrap;html=1;aspect=fixed;fillColor=#d5e8d4;strokeColor=#82b366;" vertex="1" parent="0T9Ke-bslYzrOg6vUABU-2">
          <mxGeometry x="40" y="50" width="40" height="40" as="geometry" />
        </mxCell>
        <mxCell id="0T9Ke-bslYzrOg6vUABU-6" value="&lt;p style=&quot;line-height: 80%;&quot;&gt;&lt;font style=&quot;font-size: 7px;&quot;&gt;Нажатие кнопки&amp;nbsp;&lt;br&gt;&quot;Войти&quot;&lt;/font&gt;&lt;/p&gt;" style="text;html=1;align=center;verticalAlign=middle;resizable=0;points=[];autosize=1;strokeColor=none;fillColor=none;" vertex="1" parent="0T9Ke-bslYzrOg6vUABU-2">
          <mxGeometry x="20" y="70" width="80" height="60" as="geometry" />
        </mxCell>
        <mxCell id="0T9Ke-bslYzrOg6vUABU-7" value="&lt;p style=&quot;line-height: 40%;&quot;&gt;&lt;font style=&quot;font-size: 7px;&quot;&gt;Выбрать аккаунт(Из ранее авторизованных)&amp;nbsp;&lt;/font&gt;&lt;/p&gt;" style="rounded=1;whiteSpace=wrap;html=1;" vertex="1" parent="0T9Ke-bslYzrOg6vUABU-2">
          <mxGeometry x="110" y="45" width="80" height="50" as="geometry" />
        </mxCell>
        <mxCell id="0T9Ke-bslYzrOg6vUABU-8" value="" style="endArrow=classic;html=1;rounded=0;entryX=0;entryY=0.5;entryDx=0;entryDy=0;" edge="1" parent="0T9Ke-bslYzrOg6vUABU-2" target="0T9Ke-bslYzrOg6vUABU-7">
          <mxGeometry width="50" height="50" relative="1" as="geometry">
            <mxPoint x="80" y="70" as="sourcePoint" />
            <mxPoint x="190" y="60" as="targetPoint" />
          </mxGeometry>
        </mxCell>
        <mxCell id="0T9Ke-bslYzrOg6vUABU-20" value="&lt;p style=&quot;line-height: 40%;&quot;&gt;&lt;font style=&quot;font-size: 7px;&quot;&gt;Выбрать из ранее авторизованных профилей и войти&lt;/font&gt;&lt;/p&gt;" style="rounded=1;whiteSpace=wrap;html=1;" vertex="1" parent="0T9Ke-bslYzrOg6vUABU-2">
          <mxGeometry x="230" y="90" width="90" height="50" as="geometry" />
        </mxCell>
        <mxCell id="0T9Ke-bslYzrOg6vUABU-62" style="edgeStyle=orthogonalEdgeStyle;rounded=0;orthogonalLoop=1;jettySize=auto;html=1;exitX=1;exitY=0.5;exitDx=0;exitDy=0;entryX=0;entryY=0.5;entryDx=0;entryDy=0;" edge="1" parent="0T9Ke-bslYzrOg6vUABU-2" source="0T9Ke-bslYzrOg6vUABU-48" target="0T9Ke-bslYzrOg6vUABU-54">
          <mxGeometry relative="1" as="geometry" />
        </mxCell>
        <mxCell id="0T9Ke-bslYzrOg6vUABU-48" value="&lt;p style=&quot;line-height: 40%;&quot;&gt;&lt;font style=&quot;font-size: 7px;&quot;&gt;Заполнить форму регистрации и отправить её&lt;/font&gt;&lt;/p&gt;" style="rounded=1;whiteSpace=wrap;html=1;" vertex="1" parent="0T9Ke-bslYzrOg6vUABU-2">
          <mxGeometry x="400" y="90" width="90" height="50" as="geometry" />
        </mxCell>
        <mxCell id="0T9Ke-bslYzrOg6vUABU-64" style="edgeStyle=orthogonalEdgeStyle;rounded=0;orthogonalLoop=1;jettySize=auto;html=1;exitX=1;exitY=0.5;exitDx=0;exitDy=0;entryX=0;entryY=0.5;entryDx=0;entryDy=0;" edge="1" parent="0T9Ke-bslYzrOg6vUABU-2" source="0T9Ke-bslYzrOg6vUABU-54" target="0T9Ke-bslYzrOg6vUABU-55">
          <mxGeometry relative="1" as="geometry" />
        </mxCell>
        <mxCell id="0T9Ke-bslYzrOg6vUABU-54" value="&lt;p style=&quot;line-height: 40%;&quot;&gt;&lt;font style=&quot;font-size: 7px;&quot;&gt;Авторизоваться в системе&lt;/font&gt;&lt;/p&gt;" style="rounded=1;whiteSpace=wrap;html=1;" vertex="1" parent="0T9Ke-bslYzrOg6vUABU-2">
          <mxGeometry x="560" y="90" width="90" height="50" as="geometry" />
        </mxCell>
        <mxCell id="0T9Ke-bslYzrOg6vUABU-55" value="" style="ellipse;whiteSpace=wrap;html=1;aspect=fixed;fillColor=#dae8fc;strokeColor=#6c8ebf;" vertex="1" parent="0T9Ke-bslYzrOg6vUABU-2">
          <mxGeometry x="720" y="95" width="40" height="40" as="geometry" />
        </mxCell>
        <mxCell id="0T9Ke-bslYzrOg6vUABU-56" value="" style="ellipse;whiteSpace=wrap;html=1;aspect=fixed;fillColor=#dae8fc;strokeColor=#6c8ebf;" vertex="1" parent="0T9Ke-bslYzrOg6vUABU-2">
          <mxGeometry x="725" y="100" width="30" height="30" as="geometry" />
        </mxCell>
        <mxCell id="0T9Ke-bslYzrOg6vUABU-59" value="" style="endArrow=classic;dashed=1;html=1;dashPattern=1 3;strokeWidth=2;rounded=0;exitX=0.5;exitY=0;exitDx=0;exitDy=0;startArrow=none;startFill=0;endFill=1;entryX=0.5;entryY=1;entryDx=0;entryDy=0;entryPerimeter=0;" edge="1" parent="0T9Ke-bslYzrOg6vUABU-2">
          <mxGeometry width="50" height="50" relative="1" as="geometry">
            <mxPoint x="444.71000000000004" y="90" as="sourcePoint" />
            <mxPoint x="444.71000000000004" y="-80" as="targetPoint" />
          </mxGeometry>
        </mxCell>
        <mxCell id="0T9Ke-bslYzrOg6vUABU-66" value="&lt;p style=&quot;line-height: 0%;&quot;&gt;&lt;span style=&quot;font-size: 7px;&quot;&gt;&amp;nbsp;Сообщение о том,&amp;nbsp;&lt;/span&gt;&lt;/p&gt;&lt;p style=&quot;line-height: 0%;&quot;&gt;&lt;span style=&quot;font-size: 7px;&quot;&gt;что пользователь авторизован&lt;/span&gt;&lt;/p&gt;" style="text;html=1;align=center;verticalAlign=middle;resizable=0;points=[];autosize=1;strokeColor=none;fillColor=none;" vertex="1" parent="0T9Ke-bslYzrOg6vUABU-2">
          <mxGeometry x="675" y="125" width="130" height="50" as="geometry" />
        </mxCell>
        <mxCell id="0T9Ke-bslYzrOg6vUABU-3" value="Сервер" style="swimlane;horizontal=0;whiteSpace=wrap;html=1;" vertex="1" parent="1">
          <mxGeometry x="120" y="340" width="800" height="200" as="geometry" />
        </mxCell>
        <mxCell id="0T9Ke-bslYzrOg6vUABU-9" value="" style="rhombus;whiteSpace=wrap;html=1;fillColor=#ffe6cc;strokeColor=#d79b00;" vertex="1" parent="0T9Ke-bslYzrOg6vUABU-3">
          <mxGeometry x="250" y="60" width="50" height="50" as="geometry" />
        </mxCell>
        <mxCell id="0T9Ke-bslYzrOg6vUABU-17" value="&lt;p style=&quot;line-height: 80%;&quot;&gt;&lt;font style=&quot;font-size: 8px;&quot;&gt;Были ли авторизованные пользователи ?&lt;/font&gt;&lt;/p&gt;" style="text;html=1;strokeColor=none;fillColor=none;align=center;verticalAlign=middle;whiteSpace=wrap;rounded=0;" vertex="1" parent="0T9Ke-bslYzrOg6vUABU-3">
          <mxGeometry x="242.5" y="110" width="65" height="30" as="geometry" />
        </mxCell>
        <mxCell id="0T9Ke-bslYzrOg6vUABU-37" value="" style="shape=umlDestroy;whiteSpace=wrap;html=1;strokeWidth=3;targetShapes=umlLifeline;fillColor=#ffe6cc;strokeColor=#d79b00;" vertex="1" parent="0T9Ke-bslYzrOg6vUABU-3">
          <mxGeometry x="265" y="75" width="20" height="20" as="geometry" />
        </mxCell>
        <mxCell id="0T9Ke-bslYzrOg6vUABU-38" value="" style="endArrow=classic;html=1;rounded=0;exitX=1;exitY=0.5;exitDx=0;exitDy=0;entryX=0;entryY=0.5;entryDx=0;entryDy=0;" edge="1" parent="0T9Ke-bslYzrOg6vUABU-3" source="0T9Ke-bslYzrOg6vUABU-9" target="0T9Ke-bslYzrOg6vUABU-40">
          <mxGeometry relative="1" as="geometry">
            <mxPoint x="300" y="82.5" as="sourcePoint" />
            <mxPoint x="420" y="87.5" as="targetPoint" />
          </mxGeometry>
        </mxCell>
        <mxCell id="0T9Ke-bslYzrOg6vUABU-39" value="NO" style="edgeLabel;resizable=0;html=1;align=center;verticalAlign=middle;" connectable="0" vertex="1" parent="0T9Ke-bslYzrOg6vUABU-38">
          <mxGeometry relative="1" as="geometry" />
        </mxCell>
        <mxCell id="0T9Ke-bslYzrOg6vUABU-40" value="" style="rhombus;whiteSpace=wrap;html=1;fillColor=#ffe6cc;strokeColor=#d79b00;" vertex="1" parent="0T9Ke-bslYzrOg6vUABU-3">
          <mxGeometry x="420" y="60" width="50" height="50" as="geometry" />
        </mxCell>
        <mxCell id="0T9Ke-bslYzrOg6vUABU-44" value="" style="shape=umlDestroy;whiteSpace=wrap;html=1;strokeWidth=3;targetShapes=umlLifeline;fillColor=#ffe6cc;strokeColor=#d79b00;" vertex="1" parent="0T9Ke-bslYzrOg6vUABU-3">
          <mxGeometry x="435" y="75" width="20" height="20" as="geometry" />
        </mxCell>
        <mxCell id="0T9Ke-bslYzrOg6vUABU-45" value="&lt;p style=&quot;line-height: 80%;&quot;&gt;&lt;font style=&quot;font-size: 8px;&quot;&gt;Существует ли профиль на сайте ?&lt;/font&gt;&lt;/p&gt;" style="text;html=1;strokeColor=none;fillColor=none;align=center;verticalAlign=middle;whiteSpace=wrap;rounded=0;" vertex="1" parent="0T9Ke-bslYzrOg6vUABU-3">
          <mxGeometry x="415" y="110" width="60" height="30" as="geometry" />
        </mxCell>
        <mxCell id="0T9Ke-bslYzrOg6vUABU-52" value="" style="endArrow=classic;html=1;rounded=0;exitX=1;exitY=0.5;exitDx=0;exitDy=0;entryX=0.5;entryY=1;entryDx=0;entryDy=0;" edge="1" parent="0T9Ke-bslYzrOg6vUABU-3" target="0T9Ke-bslYzrOg6vUABU-54">
          <mxGeometry relative="1" as="geometry">
            <mxPoint x="470" y="84.75" as="sourcePoint" />
            <mxPoint x="590" y="84.75" as="targetPoint" />
            <Array as="points">
              <mxPoint x="605" y="85" />
            </Array>
          </mxGeometry>
        </mxCell>
        <mxCell id="0T9Ke-bslYzrOg6vUABU-53" value="YES" style="edgeLabel;resizable=0;html=1;align=center;verticalAlign=middle;" connectable="0" vertex="1" parent="0T9Ke-bslYzrOg6vUABU-52">
          <mxGeometry relative="1" as="geometry">
            <mxPoint y="-80" as="offset" />
          </mxGeometry>
        </mxCell>
        <mxCell id="0T9Ke-bslYzrOg6vUABU-4" value="YouTube" style="rounded=0;whiteSpace=wrap;html=1;" vertex="1" parent="1">
          <mxGeometry x="120" y="120" width="800" height="20" as="geometry" />
        </mxCell>
        <mxCell id="0T9Ke-bslYzrOg6vUABU-16" style="edgeStyle=orthogonalEdgeStyle;rounded=0;orthogonalLoop=1;jettySize=auto;html=1;exitX=0.5;exitY=1;exitDx=0;exitDy=0;entryX=0;entryY=0.5;entryDx=0;entryDy=0;" edge="1" parent="1" source="0T9Ke-bslYzrOg6vUABU-7" target="0T9Ke-bslYzrOg6vUABU-9">
          <mxGeometry relative="1" as="geometry" />
        </mxCell>
        <mxCell id="0T9Ke-bslYzrOg6vUABU-31" value="" style="endArrow=classic;html=1;rounded=0;exitX=0.5;exitY=0;exitDx=0;exitDy=0;entryX=0.5;entryY=1;entryDx=0;entryDy=0;" edge="1" parent="1" source="0T9Ke-bslYzrOg6vUABU-9" target="0T9Ke-bslYzrOg6vUABU-20">
          <mxGeometry relative="1" as="geometry">
            <mxPoint x="300" y="320" as="sourcePoint" />
            <mxPoint x="460" y="320" as="targetPoint" />
          </mxGeometry>
        </mxCell>
        <mxCell id="0T9Ke-bslYzrOg6vUABU-32" value="YES" style="edgeLabel;resizable=0;html=1;align=center;verticalAlign=middle;" connectable="0" vertex="1" parent="0T9Ke-bslYzrOg6vUABU-31">
          <mxGeometry relative="1" as="geometry" />
        </mxCell>
        <mxCell id="0T9Ke-bslYzrOg6vUABU-49" value="" style="endArrow=classic;html=1;rounded=0;exitX=0.5;exitY=0;exitDx=0;exitDy=0;entryX=0.5;entryY=1;entryDx=0;entryDy=0;" edge="1" parent="1" source="0T9Ke-bslYzrOg6vUABU-40" target="0T9Ke-bslYzrOg6vUABU-48">
          <mxGeometry relative="1" as="geometry">
            <mxPoint x="390" y="360" as="sourcePoint" />
            <mxPoint x="490" y="360" as="targetPoint" />
          </mxGeometry>
        </mxCell>
        <mxCell id="0T9Ke-bslYzrOg6vUABU-50" value="NO" style="edgeLabel;resizable=0;html=1;align=center;verticalAlign=middle;" connectable="0" vertex="1" parent="0T9Ke-bslYzrOg6vUABU-49">
          <mxGeometry relative="1" as="geometry" />
        </mxCell>
        <mxCell id="0T9Ke-bslYzrOg6vUABU-57" value="" style="endArrow=classic;dashed=1;html=1;dashPattern=1 3;strokeWidth=2;rounded=0;exitX=0.5;exitY=0;exitDx=0;exitDy=0;startArrow=none;startFill=0;endFill=1;entryX=0.5;entryY=1;entryDx=0;entryDy=0;entryPerimeter=0;" edge="1" parent="1" source="0T9Ke-bslYzrOg6vUABU-20" target="0T9Ke-bslYzrOg6vUABU-58">
          <mxGeometry width="50" height="50" relative="1" as="geometry">
            <mxPoint x="430" y="280" as="sourcePoint" />
            <mxPoint x="395" y="70" as="targetPoint" />
          </mxGeometry>
        </mxCell>
        <mxCell id="0T9Ke-bslYzrOg6vUABU-58" value="&lt;font style=&quot;font-size: 8px;&quot;&gt;Пользователи&lt;/font&gt;" style="strokeWidth=2;html=1;shape=mxgraph.flowchart.database;whiteSpace=wrap;" vertex="1" parent="1">
          <mxGeometry x="357.5" width="82.5" height="60" as="geometry" />
        </mxCell>
        <mxCell id="0T9Ke-bslYzrOg6vUABU-60" value="&lt;font style=&quot;font-size: 8px;&quot;&gt;Пользователи&lt;/font&gt;" style="strokeWidth=2;html=1;shape=mxgraph.flowchart.database;whiteSpace=wrap;" vertex="1" parent="1">
          <mxGeometry x="520" width="90" height="60" as="geometry" />
        </mxCell>
        <mxCell id="0T9Ke-bslYzrOg6vUABU-68" value="Клиент" style="swimlane;horizontal=0;whiteSpace=wrap;html=1;" vertex="1" parent="1">
          <mxGeometry x="970" y="120" width="630" height="200" as="geometry" />
        </mxCell>
        <mxCell id="0T9Ke-bslYzrOg6vUABU-69" value="" style="ellipse;whiteSpace=wrap;html=1;aspect=fixed;fillColor=#d5e8d4;strokeColor=#82b366;" vertex="1" parent="0T9Ke-bslYzrOg6vUABU-68">
          <mxGeometry x="40" y="75" width="40" height="40" as="geometry" />
        </mxCell>
        <mxCell id="0T9Ke-bslYzrOg6vUABU-70" value="&lt;p style=&quot;line-height: 80%;&quot;&gt;&lt;font style=&quot;font-size: 7px;&quot;&gt;Нажатие кнопки&amp;nbsp;&lt;br&gt;&quot;Добавить видео&quot;&lt;/font&gt;&lt;/p&gt;" style="text;html=1;align=center;verticalAlign=middle;resizable=0;points=[];autosize=1;strokeColor=none;fillColor=none;" vertex="1" parent="0T9Ke-bslYzrOg6vUABU-68">
          <mxGeometry x="20" y="100" width="80" height="60" as="geometry" />
        </mxCell>
        <mxCell id="0T9Ke-bslYzrOg6vUABU-116" style="edgeStyle=orthogonalEdgeStyle;rounded=0;orthogonalLoop=1;jettySize=auto;html=1;exitX=1;exitY=0.5;exitDx=0;exitDy=0;entryX=0;entryY=0.5;entryDx=0;entryDy=0;" edge="1" parent="0T9Ke-bslYzrOg6vUABU-68" source="0T9Ke-bslYzrOg6vUABU-71" target="0T9Ke-bslYzrOg6vUABU-73">
          <mxGeometry relative="1" as="geometry" />
        </mxCell>
        <mxCell id="0T9Ke-bslYzrOg6vUABU-71" value="&lt;p style=&quot;line-height: 80%;&quot;&gt;&lt;font style=&quot;font-size: 8px;&quot;&gt;&quot;Загрузка файла&quot;: Пользователь выбирает файл для загрузки.&lt;/font&gt;&lt;/p&gt;" style="rounded=1;whiteSpace=wrap;html=1;" vertex="1" parent="0T9Ke-bslYzrOg6vUABU-68">
          <mxGeometry x="110" y="70" width="80" height="50" as="geometry" />
        </mxCell>
        <mxCell id="0T9Ke-bslYzrOg6vUABU-72" value="" style="endArrow=classic;html=1;rounded=0;entryX=0;entryY=0.5;entryDx=0;entryDy=0;" edge="1" parent="0T9Ke-bslYzrOg6vUABU-68" target="0T9Ke-bslYzrOg6vUABU-71">
          <mxGeometry width="50" height="50" relative="1" as="geometry">
            <mxPoint x="80" y="95" as="sourcePoint" />
            <mxPoint x="190" y="85" as="targetPoint" />
          </mxGeometry>
        </mxCell>
        <mxCell id="0T9Ke-bslYzrOg6vUABU-136" style="edgeStyle=orthogonalEdgeStyle;rounded=0;orthogonalLoop=1;jettySize=auto;html=1;exitX=1;exitY=0.5;exitDx=0;exitDy=0;entryX=0;entryY=0.5;entryDx=0;entryDy=0;" edge="1" parent="0T9Ke-bslYzrOg6vUABU-68" source="0T9Ke-bslYzrOg6vUABU-73" target="0T9Ke-bslYzrOg6vUABU-134">
          <mxGeometry relative="1" as="geometry" />
        </mxCell>
        <mxCell id="0T9Ke-bslYzrOg6vUABU-73" value="&lt;p style=&quot;line-height: 40%;&quot;&gt;&lt;font style=&quot;font-size: 7px;&quot;&gt;Пользователь устанавливает настройки для видео&lt;/font&gt;&lt;/p&gt;" style="rounded=1;whiteSpace=wrap;html=1;" vertex="1" parent="0T9Ke-bslYzrOg6vUABU-68">
          <mxGeometry x="250" y="70" width="90" height="50" as="geometry" />
        </mxCell>
        <mxCell id="0T9Ke-bslYzrOg6vUABU-81" value="&lt;p style=&quot;line-height: 0%;&quot;&gt;&lt;span style=&quot;font-size: 7px;&quot;&gt;&amp;nbsp;Сообщение о том,&amp;nbsp;&lt;/span&gt;&lt;/p&gt;&lt;p style=&quot;line-height: 0%;&quot;&gt;&lt;span style=&quot;font-size: 7px;&quot;&gt;что видео добавлено&lt;/span&gt;&lt;/p&gt;" style="text;html=1;align=center;verticalAlign=middle;resizable=0;points=[];autosize=1;strokeColor=none;fillColor=none;" vertex="1" parent="0T9Ke-bslYzrOg6vUABU-68">
          <mxGeometry x="531.5" y="115" width="90" height="50" as="geometry" />
        </mxCell>
        <mxCell id="0T9Ke-bslYzrOg6vUABU-115" value="Творческая студия YouTube" style="rounded=0;whiteSpace=wrap;html=1;" vertex="1" parent="0T9Ke-bslYzrOg6vUABU-68">
          <mxGeometry width="630" height="20" as="geometry" />
        </mxCell>
        <mxCell id="0T9Ke-bslYzrOg6vUABU-134" value="&lt;p style=&quot;line-height: 40%;&quot;&gt;&lt;font style=&quot;font-size: 7px;&quot;&gt;Пользователь добавляет видео&lt;/font&gt;&lt;/p&gt;" style="rounded=1;whiteSpace=wrap;html=1;" vertex="1" parent="0T9Ke-bslYzrOg6vUABU-68">
          <mxGeometry x="390" y="70" width="90" height="50" as="geometry" />
        </mxCell>
        <mxCell id="0T9Ke-bslYzrOg6vUABU-144" value="" style="ellipse;whiteSpace=wrap;html=1;aspect=fixed;strokeWidth=7;" vertex="1" parent="0T9Ke-bslYzrOg6vUABU-68">
          <mxGeometry x="554" y="75" width="45" height="45" as="geometry" />
        </mxCell>
        <mxCell id="0T9Ke-bslYzrOg6vUABU-104" value="Сервер" style="swimlane;horizontal=0;whiteSpace=wrap;html=1;" vertex="1" parent="1">
          <mxGeometry x="970" y="340" width="630" height="200" as="geometry" />
        </mxCell>
        <mxCell id="0T9Ke-bslYzrOg6vUABU-118" value="&lt;p style=&quot;line-height: 80%;&quot;&gt;&lt;span style=&quot;font-size: 8px;&quot;&gt;Добавление мета информации в бд&lt;/span&gt;&lt;/p&gt;" style="rounded=1;whiteSpace=wrap;html=1;" vertex="1" parent="0T9Ke-bslYzrOg6vUABU-104">
          <mxGeometry x="110" y="70" width="80" height="50" as="geometry" />
        </mxCell>
        <mxCell id="0T9Ke-bslYzrOg6vUABU-137" value="&lt;p style=&quot;line-height: 80%;&quot;&gt;&lt;span style=&quot;font-size: 8px;&quot;&gt;Обработка запроса на добавление видео&lt;/span&gt;&lt;/p&gt;" style="rounded=1;whiteSpace=wrap;html=1;" vertex="1" parent="0T9Ke-bslYzrOg6vUABU-104">
          <mxGeometry x="395" y="70" width="80" height="50" as="geometry" />
        </mxCell>
        <mxCell id="0T9Ke-bslYzrOg6vUABU-119" style="edgeStyle=orthogonalEdgeStyle;rounded=0;orthogonalLoop=1;jettySize=auto;html=1;exitX=0.5;exitY=1;exitDx=0;exitDy=0;entryX=0.5;entryY=0;entryDx=0;entryDy=0;" edge="1" parent="1" source="0T9Ke-bslYzrOg6vUABU-71" target="0T9Ke-bslYzrOg6vUABU-118">
          <mxGeometry relative="1" as="geometry" />
        </mxCell>
        <mxCell id="0T9Ke-bslYzrOg6vUABU-121" value="" style="endArrow=none;dashed=1;html=1;dashPattern=1 3;strokeWidth=2;rounded=0;exitX=0.5;exitY=0;exitDx=0;exitDy=0;startArrow=classic;startFill=1;endFill=0;entryX=0.5;entryY=1;entryDx=0;entryDy=0;entryPerimeter=0;" edge="1" parent="1">
          <mxGeometry width="50" height="50" relative="1" as="geometry">
            <mxPoint x="1120" y="630" as="sourcePoint" />
            <mxPoint x="1120" y="460" as="targetPoint" />
          </mxGeometry>
        </mxCell>
        <mxCell id="0T9Ke-bslYzrOg6vUABU-122" value="&lt;font style=&quot;font-size: 8px;&quot;&gt;META-INFO&lt;/font&gt;" style="strokeWidth=2;html=1;shape=mxgraph.flowchart.database;whiteSpace=wrap;" vertex="1" parent="1">
          <mxGeometry x="1080" y="630" width="90" height="60" as="geometry" />
        </mxCell>
        <mxCell id="0T9Ke-bslYzrOg6vUABU-140" value="&lt;font style=&quot;font-size: 8px;&quot;&gt;ВИДЕО&lt;/font&gt;" style="strokeWidth=2;html=1;shape=mxgraph.flowchart.database;whiteSpace=wrap;" vertex="1" parent="1">
          <mxGeometry x="1360" y="630" width="90" height="60" as="geometry" />
        </mxCell>
        <mxCell id="0T9Ke-bslYzrOg6vUABU-141" style="edgeStyle=orthogonalEdgeStyle;rounded=0;orthogonalLoop=1;jettySize=auto;html=1;" edge="1" parent="1" source="0T9Ke-bslYzrOg6vUABU-134" target="0T9Ke-bslYzrOg6vUABU-137">
          <mxGeometry relative="1" as="geometry" />
        </mxCell>
        <mxCell id="0T9Ke-bslYzrOg6vUABU-139" value="" style="endArrow=none;dashed=1;html=1;dashPattern=1 3;strokeWidth=2;rounded=0;exitX=0.5;exitY=0;exitDx=0;exitDy=0;startArrow=classic;startFill=1;endFill=0;entryX=0.5;entryY=1;entryDx=0;entryDy=0;entryPerimeter=0;" edge="1" parent="1">
          <mxGeometry width="50" height="50" relative="1" as="geometry">
            <mxPoint x="1404.58" y="630" as="sourcePoint" />
            <mxPoint x="1404.58" y="460" as="targetPoint" />
          </mxGeometry>
        </mxCell>
        <mxCell id="0T9Ke-bslYzrOg6vUABU-145" style="edgeStyle=orthogonalEdgeStyle;rounded=0;orthogonalLoop=1;jettySize=auto;html=1;" edge="1" parent="1" source="0T9Ke-bslYzrOg6vUABU-137" target="0T9Ke-bslYzrOg6vUABU-144">
          <mxGeometry relative="1" as="geometry" />
        </mxCell>
      </root>
    </mxGraphModel>
  </diagram>
</mxfile>
